<?xml version="1.0" encoding="utf-8"?>
<!-- Uploaded to: SVG Repo, www.svgrepo.com, Generator: SVG Repo Mixer Tools -->
<svg width="800px" height="800px" viewBox="0 0 1024 1024" class="icon"  version="1.1" xmlns="http://www.w3.org/2000/svg"><path d="M730.255491 637.922537c2.135825 3.048107 4.331035 5.883245 6.526245 8.172652 41.107972 40.192618 58.245764 67.273361 65.623883 78.921081 0 0 12.809829 25.312493 14.639512 29.154111 7.500984 15.919369 7.500984 32.44795 7.500984 32.44795 0.671669 3.110564-0.121842 5.733758-1.951526 8.235109-11.769562 59.403779-169.677252 106.672469-362.7124 106.672469-200.661046 0-363.995329-51.050922-363.995328-113.74854 0-4.422161 1.037196-8.843298 2.623194-13.233718 4.393492-23.024109 21.043915-64.590782 86.425136-128.691122 8.96514-9.208825 45.07348-62.576799 71.176413-247.807894 18.114579-128.416721 121.555666-166.292287 194.742988-169.523669 47.999744-66.051866 125.580559-109.264946 213.285552-109.264947 145.404003 0 263.724191 118.32326 263.724191 263.724191 0.001024 122.529381-84.165421 225.482074-197.608844 254.942327z" fill="#27323A" /><path d="M535.999872 709.068232c7.685283 13.312557 12.441231 28.544899 12.441231 45.026381 0 44.355736-32.02099 81.072264-74.102677 88.786216a80.209129 80.209129 0 0 1-16.347353 1.680196 80.8552 80.8552 0 0 1-16.344281-1.680196c-42.144144-7.72931-74.102677-44.445838-74.102677-88.786216 0-16.35964 4.696562-31.486522 12.319388-44.720239-144.791719 12.89686-220.786536 58.123922-227.740765 75.414274 9.636809 22.078039 114.23591 76.666485 307.761499 76.666485 196.45083 0 301.721599-56.355672 308.553986-77.8245-4.697586-14.74702-82.4627-61.921513-232.438351-74.562401z" fill="#F4CE73" /><path d="M706.226951 677.322668c-7.807126-8.01907-15.189339-18.755531-22.202954-31.686179-6.58563 0.490441-13.171261 1.008527-19.882829 1.008527-145.400931 0-263.664806-118.260803-263.664805-263.664806 0-38.27181 8.355928-74.620762 23.117283-107.496696-46.170061 8.568896-111.247188 36.960212-124.17886 128.721839v-0.062457c-27.87323 197.216696-67.454589 256.043003-83.189659 272.202985-5.187003 3.965508-23.298511 23.757211-32.875934 33.273202 66.358008-27.036716 164.493321-45.638664 274.154511-45.909994 0.184299 0 0.306142-0.047099 0.487369-0.047099 0.124914 0 0.246756 0.03174 0.306142 0.03174 0.549826 0 1.037196-0.03174 1.585998-0.03174 112.221927 0 212.736749 19.242901 279.522742 47.146847-9.821108-9.610188-26.655831-26.229894-33.179004-33.486169z" fill="#79CCBF" /><path d="M881.024653 382.979186c0-119.60414-97.279345-216.883485-216.883485-216.883485-119.541683 0-216.8241 97.279345-216.8241 216.883485 0 119.541683 97.282416 216.8241 216.8241 216.8241 119.60414 0 216.883485-97.282416 216.883485-216.8241z" fill="#FFFFFF" /><path d="M687.805206 347.117603c9.699266 8.05081 16.041211 20.004671 16.041211 33.603916 0 24.154479-19.579759 43.671781-43.731166 43.671781-13.783544 0-25.859248-6.463788-33.910058-16.406738H540.512135c-12.9286 0-23.420353-10.489705-23.420353-23.420353s10.492777-23.420353 23.420353-23.420353h80.691378c4.331035-8.478794 11.222807-15.370566 19.760987-19.579759V208.605372c0-12.9286 10.492777-23.420353 23.420353-23.420353 12.931672 0 23.420353 10.492777 23.420353 23.420353v138.512231z" fill="#27323A" /><path d="M457.991073 797.687555c24.092022 0 43.609324-19.563377 43.609324-43.592942s-19.517302-43.592942-43.609324-43.592941c-24.029565 0-43.606252 19.564401-43.606252 43.592941 0 24.029565 19.576687 43.592942 43.606252 43.592942z" fill="#FFFFFF" /></svg>